<svg xmlns="http://www.w3.org/2000/svg" width="40" height="40" viewBox="0 0 40 40">
  <g id="Icon_ionic-ios-arrow-dropleft" data-name="Icon ionic-ios-arrow-dropleft" transform="translate(-3.375 -3.375)">
    <path id="Path_28590" data-name="Path 28590" d="M25.235,10.5a2.137,2.137,0,0,0-2.781,0l-9.719,8.75a1.635,1.635,0,0,0-.061,2.432L22.25,30.3a2.13,2.13,0,0,0,2.781.009,1.639,1.639,0,0,0,0-2.5L16.9,20.409l8.343-7.415A1.639,1.639,0,0,0,25.235,10.5Z" transform="translate(2.89 2.966)" fill="#858585"/>
    <path id="Path_28591" data-name="Path 28591" d="M23.375,3.375a20,20,0,1,0,20,20A20,20,0,0,0,23.375,3.375ZM35.337,35.337A16.916,16.916,0,1,1,11.413,11.413,16.916,16.916,0,1,1,35.337,35.337Z" transform="translate(0 0)" fill="#858585"/>
  </g>
</svg>
