<svg id="FundedX-C2" xmlns="http://www.w3.org/2000/svg" width="348" height="81.78" viewBox="0 0 348 81.78">
  <g id="Group_4192" data-name="Group 4192" transform="translate(0 20.445)">
    <path id="Path_26468" data-name="Path 26468" d="M40.737,67.072V58.931H8.3V58.75H0V99.64H8.142l.065-16.284h32.5l.027-8.142H8.239l.032-8.142Z" transform="translate(0 -58.75)" fill="#fffefc"/>
    <path id="Path_26469" data-name="Path 26469" d="M174.5,59.269h8.142v27.14q0,13.57-13.57,13.57h-13.57q-13.57,0-13.57-13.57V59.269h8.142V85.3q0,6.541,6.513,6.541h11.371q6.54,0,6.541-6.568Z" transform="translate(-92.542 -59.088)" fill="#fffefc"/>
    <path id="Path_26470" data-name="Path 26470" d="M291.976,71.617V99.978h-8.142V59.269h8.3L316.4,87.63V59.269h8.142V99.978h-8.278l-24.29-28.361Z" transform="translate(-185.06 -59.088)" fill="#fffefc"/>
    <path id="Path_26471" data-name="Path 26471" d="M452.871,59.269h-27.14V99.978h27.14q13.57,0,13.57-13.57V72.839q0-13.57-13.57-13.57ZM458.245,85.4q0,6.432-6.514,6.432H433.906l.1-24.426h17.755q6.486,0,6.486,6.4V85.4Z" transform="translate(-277.577 -59.088)" fill="#fffefc"/>
    <path id="Path_26472" data-name="Path 26472" d="M608.337,67.411V59.269H567.628V99.978h40.709V91.837H575.8l.032-8.142h32.5V75.553h-32.47l.033-8.142Z" transform="translate(-370.093 -59.088)" fill="#fffefc"/>
    <path id="Path_26473" data-name="Path 26473" d="M736.665,59.269h-27.14V99.978h27.14q13.57,0,13.57-13.57V72.839q0-13.57-13.57-13.57ZM742.039,85.4q0,6.432-6.513,6.432H717.7l.1-24.426h17.755q6.486,0,6.486,6.4V85.4Z" transform="translate(-462.611 -59.088)" fill="#fffefc"/>
  </g>
  <g id="Group_4193" data-name="Group 4193" transform="translate(279.632)">
    <path id="Path_26474" data-name="Path 26474" d="M905.438,44.882l13.767,16.453H908.52L894.1,44.082,930.955,0Z" transform="translate(-862.586)" fill="#fffefc"/>
    <path id="Path_26475" data-name="Path 26475" d="M829.055,75.2,803.54,120.085,840.393,76,825.975,58.75H815.289Z" transform="translate(-803.54 -38.305)" fill="#a4a7a0"/>
  </g>
</svg>
